<?xml version="1.0" encoding="utf-8"?>
<!-- Generator: Adobe Illustrator 24.3.0, SVG Export Plug-In . SVG Version: 6.00 Build 0)  -->
<svg version="1.1" xmlns="http://www.w3.org/2000/svg" xmlns:xlink="http://www.w3.org/1999/xlink" x="0px" y="0px"
	 viewBox="0 0 2122 2122" style="enable-background:new 0 0 2122 2122;" xml:space="preserve">
<style type="text/css">
	.st0{display:none;}
	.st1{display:inline;}
	.st2{fill:url(#SVGID_1_);}
	.st3{clip-path:url(#SVGID_3_);fill:url(#SVGID_4_);}
	.st4{fill:#E61800;}
	.st5{font-family:'Swiss721BT-BlackCondensed';}
	.st6{font-size:243.5534px;}
	.st7{letter-spacing:9;}
	.st8{fill:none;}
	.st9{fill:url(#SVGID_5_);}
	.st10{fill:url(#SVGID_6_);}
	.st11{fill:url(#SVGID_7_);}
	.st12{fill:url(#SVGID_8_);}
	.st13{fill:url(#SVGID_9_);}
	.st14{fill:url(#SVGID_10_);}
	.st15{fill:url(#SVGID_11_);}
	.st16{fill:url(#SVGID_12_);}
</style>
<g id="Layer_1" class="st0">
	<g id="BG" class="st1">
		<radialGradient id="SVGID_1_" cx="1060.6602" cy="1060.6602" r="1060.6602" gradientUnits="userSpaceOnUse">
			<stop  offset="0" style="stop-color:#FFFFFF"/>
			<stop  offset="0.3494" style="stop-color:#FAFAFA"/>
			<stop  offset="0.7606" style="stop-color:#ECECEC"/>
			<stop  offset="1" style="stop-color:#E0E0E0"/>
		</radialGradient>
		<rect class="st2" width="2121.3" height="2121.3"/>
	</g>
</g>
<g id="Logo_1">
	<g>
		<g>
			<g>
				<g>
					<defs>
						<path id="SVGID_2_" d="M678.6,1069.4V886.3h59.9l16.3,77.9c0.1,0.4,0.7,5.3,2,14.7c1.2,9.4,2.5,18.8,3.9,28.2
							c1-7.1,2.3-15.8,3.9-26.2c1.5-10.4,2.4-16.2,2.7-17.3l16.2-77.3h59.3v183.1h-40.4l3.7-141.5l-29,141.5h-32.6l-29-141.5
							l3.7,141.5H678.6z M937.5,1069.4l-2.3-12.6c-4.8,5.1-10.1,8.9-15.9,11.5c-5.7,2.6-12,3.9-18.7,3.9c-10.8,0-19.3-3.5-25.6-10.5
							c-6.3-7-9.5-16.4-9.5-28.3c0-10.4,2.7-18.9,8-25.7c5.4-6.7,14.1-12.6,26.3-17.5c2.9-1.1,6.9-2.6,11.9-4.4
							c14.3-5.2,21.5-11.1,21.5-17.7c0-4-1-7.1-3.1-9.2c-2.1-2.1-5-3.2-8.9-3.2c-4.7,0-8.1,1.4-10.4,4.2c-2.3,2.8-3.4,7.2-3.4,13v1
							H869c0-15.5,4.3-27.1,13-34.7c8.6-7.6,21.8-11.4,39.4-11.4c7.9,0,15,0.7,21.2,2.2c6.2,1.5,11.4,3.6,15.6,6.4
							c5.4,3.6,9.2,8,11.4,13.2c2.2,5.2,3.3,14.5,3.3,28.2v4.2v48.9c0,10.8,0.4,19,1.1,24.7c0.8,5.7,2,10.3,3.7,13.9H937.5z
							 M932.6,1003.2c-9.9,2.8-17.1,6.2-21.7,10.3c-4.6,4.1-6.8,9.3-6.8,15.5c0,4.4,1.1,7.8,3.4,10.5c2.3,2.6,5.3,3.9,9.1,3.9
							c5.6,0,9.7-1.9,12.2-5.7c2.5-3.8,3.8-10.2,3.8-19.1V1003.2z M997.3,1069.4V886.3h38.3v60.2c3.2-5.8,7.4-10.1,12.5-13
							c5.1-2.9,11.2-4.3,18.4-4.3c10.6,0,18.4,3.5,23.3,10.6c4.9,7.1,7.4,18.3,7.4,33.7v96H1059v-85c0-11-0.7-17.9-2.1-20.6
							c-1.4-2.7-4-4-7.6-4c-4.3,0-7.6,2.1-10,6.2c-2.4,4.2-3.6,10-3.6,17.4v86H997.3z M1182.5,1021.1h36v3.4
							c0,16.1-4.2,28.2-12.6,36.3c-8.4,8.1-20.9,12.2-37.6,12.2c-8.4,0-16-1.2-22.8-3.6c-6.8-2.4-12.1-5.7-15.9-9.9
							c-4.3-4.8-7.3-11.3-9.2-19.3c-1.8-8-2.7-20.8-2.7-38.4c0-19.4,0.9-33,2.8-40.7c1.9-7.7,5.1-14,9.6-19
							c4.4-4.7,9.9-8.2,16.6-10.6c6.7-2.4,14.5-3.6,23.4-3.6c9,0,16.8,1.3,23.4,3.9c6.6,2.6,11.9,6.4,16.1,11.5
							c3.5,4.3,6,9.4,7.5,15.3c1.5,5.9,2.3,16.1,2.3,30.4v16.5h-62.6c-0.1,0.4-0.1,0.9-0.1,1.5c-0.3,5.8-0.5,9.8-0.5,12.1
							c0,9.7,1,16.4,3.1,20.2c2.1,3.8,5.6,5.6,10.6,5.6c4.4,0,7.7-1.4,9.9-4.3c2.2-2.9,3.3-7.3,3.3-13.1c0-1.2-0.1-3-0.4-5.5
							C1182.5,1021.9,1182.5,1021.5,1182.5,1021.1z M1157.6,982h25.8c0-0.2,0-0.4,0-0.7c0.3-3.5,0.5-5.9,0.5-7.4
							c0-6.7-1.1-11.7-3.3-14.9c-2.2-3.2-5.6-4.8-10.2-4.8c-4.7,0-8,1.6-10,4.7c-2,3.1-3,8.3-3,15.5c0,2,0,3.5,0.1,4.6
							C1157.5,980.2,1157.5,981.2,1157.6,982z M1234.1,1025.8l34.4,0.1c0.4,7.1,1.8,12.3,4.2,15.6c2.4,3.3,5.9,4.9,10.7,4.9
							c3.8,0,6.9-1.1,9.4-3.4c2.5-2.3,3.7-5.2,3.7-8.7c0-3.1-0.9-5.6-2.6-7.7c-1.7-2-5.5-4.4-11.4-7.2c-1.3-0.6-3.3-1.6-5.9-2.9
							c-13.9-6.4-23.5-12.4-29-18.1c-3.9-3.8-6.9-8.2-8.9-13.3c-2.1-5.1-3.1-10.4-3.1-15.9c0-12.5,4.3-22.5,12.8-30
							c8.5-7.5,20-11.2,34.5-11.2c15.1,0,26.7,3.6,34.8,10.8c8.1,7.2,12.2,17.5,12.2,30.9v2.5l-33.7-0.1c-0.2-6.9-1.2-11.8-3.2-14.7
							c-1.9-2.9-5.1-4.4-9.5-4.4c-3.9,0-7,1.1-9.3,3.2c-2.3,2.1-3.4,4.9-3.4,8.3c0,6,5.7,11.6,17.2,16.6c1.6,0.7,2.8,1.3,3.7,1.7
							c15.7,7.1,26.2,13.9,31.5,20.6c5.3,6.7,8,15.4,8,26.2c0,13.9-4.3,24.6-12.8,32.2c-8.6,7.6-20.8,11.4-36.6,11.4
							c-15.1,0-26.8-3.8-35.1-11.5c-8.4-7.7-12.5-18.5-12.5-32.3V1025.8z M1348.5,1069.4V886.3h38.3v60.2c3.2-5.8,7.4-10.1,12.5-13
							c5.1-2.9,11.2-4.3,18.4-4.3c10.6,0,18.4,3.5,23.3,10.6c4.9,7.1,7.4,18.3,7.4,33.7v96h-38.2v-85c0-11-0.7-17.9-2.1-20.6
							c-1.4-2.7-4-4-7.6-4c-4.3,0-7.6,2.1-10,6.2c-2.4,4.2-3.6,10-3.6,17.4v86H1348.5z M1488.1,1069.4l-26.6-137.6h37.3l10.7,95.7
							l14.6-95.7h32.1l14.4,95.7l10.9-95.7h37.2l-26.8,137.6h-40l-12.1-75.8l-11.9,75.8H1488.1z M1699.3,1069.4l-2.3-12.6
							c-4.8,5.1-10.1,8.9-15.9,11.5c-5.7,2.6-12,3.9-18.7,3.9c-10.8,0-19.3-3.5-25.6-10.5c-6.3-7-9.5-16.4-9.5-28.3
							c0-10.4,2.7-18.9,8-25.7c5.4-6.7,14.1-12.6,26.3-17.5c2.9-1.1,6.9-2.6,11.9-4.4c14.3-5.2,21.5-11.1,21.5-17.7
							c0-4-1-7.1-3.1-9.2c-2.1-2.1-5-3.2-8.9-3.2c-4.7,0-8.1,1.4-10.4,4.2c-2.3,2.8-3.4,7.2-3.4,13v1h-38.5c0-15.5,4.3-27.1,13-34.7
							c8.6-7.6,21.8-11.4,39.4-11.4c7.9,0,15,0.7,21.2,2.2c6.2,1.5,11.4,3.6,15.6,6.4c5.4,3.6,9.2,8,11.4,13.2
							c2.2,5.2,3.3,14.5,3.3,28.2v4.2v48.9c0,10.8,0.4,19,1.1,24.7c0.8,5.7,2,10.3,3.7,13.9H1699.3z M1694.4,1003.2
							c-9.9,2.8-17.1,6.2-21.7,10.3c-4.6,4.1-6.8,9.3-6.8,15.5c0,4.4,1.1,7.8,3.4,10.5s5.3,3.9,9.1,3.9c5.6,0,9.7-1.9,12.2-5.7
							c2.5-3.8,3.8-10.2,3.8-19.1V1003.2z M1759.1,1069.4V931.8h35.3v19.3c4.2-6.9,8.8-12.1,13.9-15.7c5-3.6,10.7-5.7,17.1-6.3v43.6
							c-2.1-0.5-4.2-0.8-6.1-1.1c-1.9-0.2-3.7-0.4-5.3-0.4c-6.2,0-10.5,2.2-12.9,6.5c-2.4,4.4-3.6,12.9-3.6,25.6v66H1759.1z
							 M1844.3,918.2v-33.3h38.2v33.3H1844.3z M1844.3,1289.4V931.8h38.2v357.6H1844.3z"/>
					</defs>
					<clipPath id="SVGID_3_">
						<use xlink:href="#SVGID_2_"  style="overflow:visible;"/>
					</clipPath>
					<linearGradient id="SVGID_4_" gradientUnits="userSpaceOnUse" x1="524.5027" y1="1088.208" x2="2275.981" y2="1088.208">
						<stop  offset="0" style="stop-color:#FFE35F"/>
						<stop  offset="0" style="stop-color:#DE9F17"/>
						<stop  offset="0.3198" style="stop-color:#CF9A15"/>
						<stop  offset="0.6802" style="stop-color:#F2A214"/>
						<stop  offset="1" style="stop-color:#FFCF45"/>
					</linearGradient>
					<path class="st3" d="M2207.7,1309.8l-1614.9-49c-37.7,0-68.3-25.8-68.3-57.5v-279c0-31.8,30.6-57.5,68.3-57.5h1614.9
						c37.7,0,68.3,25.8,68.3,57.5v279C2276,1235,2245.4,1309.8,2207.7,1309.8z"/>
				</g>
				<text transform="matrix(1 0 0 1 1333.2025 1290.8186)"><tspan x="0" y="0" class="st4 st5 st6 st7">Sath</tspan><tspan x="497.3" y="0" class="st8 st5 st6 st7">i</tspan></text>
			</g>
		</g>
		<rect x="1843.2" y="878.4" class="st4" width="40.2" height="39.7"/>
		<rect x="1843.2" y="930.4" class="st4" width="40.2" height="360"/>
	</g>
	<g id="ICON">
		<linearGradient id="SVGID_5_" gradientUnits="userSpaceOnUse" x1="384.1736" y1="956.902" x2="639.7767" y2="956.902">
			<stop  offset="0" style="stop-color:#FFE35F"/>
			<stop  offset="0" style="stop-color:#DE9F17"/>
			<stop  offset="0.3198" style="stop-color:#CF9A15"/>
			<stop  offset="0.6802" style="stop-color:#F2A214"/>
			<stop  offset="1" style="stop-color:#FFCF45"/>
		</linearGradient>
		<path class="st9" d="M394.6,1171.3c0,0,14.4-132.4,13.3-201.1c-1-68.7-2.1-136.5-2.1-136.5s-9.2-74.9,98.5-74.9
			s107.7,55.4,108.8,81.1c1,25.7-3.1,205.2,0,237c3.1,31.8,11.3,100.6,11.3,100.6s15.4-165.2,15.4-202.1s-5.1-148.8-5.1-148.8
			s11.3-70.8-92.3-87.2s-161.1,40-158,78c3.1,38,0,226.8,0,226.8S388.4,1152.8,394.6,1171.3z"/>
		<linearGradient id="SVGID_6_" gradientUnits="userSpaceOnUse" x1="352.1633" y1="1200.7755" x2="665.4001" y2="1200.7755">
			<stop  offset="0" style="stop-color:#FFE35F"/>
			<stop  offset="0" style="stop-color:#DE9F17"/>
			<stop  offset="0.3198" style="stop-color:#CF9A15"/>
			<stop  offset="0.6802" style="stop-color:#F2A214"/>
			<stop  offset="1" style="stop-color:#FFCF45"/>
		</linearGradient>
		<path class="st10" d="M376.1,1159c0,0-50.3,36.9,35.9,55.4c86.2,18.5,271.9,14.4,244.2-41c0,0,35.9,27.7-34.1,53.4
			s-190.6,20.5-257.3-16.9C364.8,1209.7,329.9,1186.1,376.1,1159z"/>
		<linearGradient id="SVGID_7_" gradientUnits="userSpaceOnUse" x1="650.7213" y1="1165.537" x2="971.9286" y2="1165.537">
			<stop  offset="0" style="stop-color:#FFE35F"/>
			<stop  offset="0" style="stop-color:#DE9F17"/>
			<stop  offset="0.3198" style="stop-color:#CF9A15"/>
			<stop  offset="0.6802" style="stop-color:#F2A214"/>
			<stop  offset="1" style="stop-color:#FFCF45"/>
		</linearGradient>
		<path class="st11" d="M650.7,1108c0,0,67,23.9,87.6,37.6c18.4,12.2,150.6,7,178.2,5.7c2.3-0.1,4.6-0.3,6.9-0.5
			c8.3-0.7,41.6,0.9,44,72.8c0,0,15.7-52.7-11.6-75.9c-22.4-19.1-98.7-17-125.4-15.6c-7.6,0.4-15.2,0.6-22.8,0.7
			c-16.3,0.2-42.8,0.5-51.5,0.5C743.1,1133.3,691.1,1103.2,650.7,1108z"/>
		<linearGradient id="SVGID_8_" gradientUnits="userSpaceOnUse" x1="250.5632" y1="1337.1024" x2="961.9553" y2="1337.1024">
			<stop  offset="0" style="stop-color:#FFE35F"/>
			<stop  offset="0" style="stop-color:#DE9F17"/>
			<stop  offset="0.3198" style="stop-color:#CF9A15"/>
			<stop  offset="0.6802" style="stop-color:#F2A214"/>
			<stop  offset="1" style="stop-color:#FFCF45"/>
		</linearGradient>
		<path class="st12" d="M250.6,1312.5c0,0,78,66.4,225,57.5c147.1-8.9,255.8-43.1,303.7-69.1c47.9-26,182.6-15.7,182.6-15.7
			s-143,3.4-197,41c-54,37.6-264,86.2-389.2,54.7C375.7,1380.9,298.4,1362.5,250.6,1312.5z"/>
		<linearGradient id="SVGID_9_" gradientUnits="userSpaceOnUse" x1="220.6693" y1="1216.5469" x2="966.0594" y2="1216.5469">
			<stop  offset="0" style="stop-color:#FFE35F"/>
			<stop  offset="0" style="stop-color:#DE9F17"/>
			<stop  offset="0.3198" style="stop-color:#CF9A15"/>
			<stop  offset="0.6802" style="stop-color:#F2A214"/>
			<stop  offset="1" style="stop-color:#FFCF45"/>
		</linearGradient>
		<path class="st13" d="M368.2,1109.4c0,0-128.5,43.4-123.1,95.1c4.8,45.8,139.5,109.4,268.8,100.6c0,0,55.5-3.6,112.1-13.3
			c38.4-6.6,75.6-18.9,110-37.3c19.5-10.4,49.8-21.9,83-17.1c56.8,8.2,147.1,10.9,147.1,10.9L809,1258.6c-7.6,0.5-15.2,1.5-22.7,3.2
			c-14,3-34.8,8.9-45.3,18.6c-39.5,36.3-342.7,84.8-478.8-20.5C126.1,1154.5,368.2,1109.4,368.2,1109.4z"/>
		<linearGradient id="SVGID_10_" gradientUnits="userSpaceOnUse" x1="424.307" y1="981.6585" x2="599.4189" y2="981.6585">
			<stop  offset="0" style="stop-color:#FFE35F"/>
			<stop  offset="0" style="stop-color:#DE9F17"/>
			<stop  offset="0.3198" style="stop-color:#CF9A15"/>
			<stop  offset="0.6802" style="stop-color:#F2A214"/>
			<stop  offset="1" style="stop-color:#FFCF45"/>
		</linearGradient>
		<path class="st14" d="M424.3,969.8c0,0,20.5,27.4,82.1,23.3c0,0,74.6-4.8,93-22.6C599.4,970.5,477.7,988.3,424.3,969.8z"/>
		<linearGradient id="SVGID_11_" gradientUnits="userSpaceOnUse" x1="424.307" y1="943.3528" x2="599.4189" y2="943.3528">
			<stop  offset="0" style="stop-color:#FFE35F"/>
			<stop  offset="0" style="stop-color:#DE9F17"/>
			<stop  offset="0.3198" style="stop-color:#CF9A15"/>
			<stop  offset="0.6802" style="stop-color:#F2A214"/>
			<stop  offset="1" style="stop-color:#FFCF45"/>
		</linearGradient>
		<path class="st15" d="M424.3,931.5c0,0,20.5,27.4,82.1,23.3c0,0,74.6-4.8,93-22.6C599.4,932.2,477.7,950,424.3,931.5z"/>
		<linearGradient id="SVGID_12_" gradientUnits="userSpaceOnUse" x1="424.307" y1="905.0471" x2="599.4189" y2="905.0471">
			<stop  offset="0" style="stop-color:#FFE35F"/>
			<stop  offset="0" style="stop-color:#DE9F17"/>
			<stop  offset="0.3198" style="stop-color:#CF9A15"/>
			<stop  offset="0.6802" style="stop-color:#F2A214"/>
			<stop  offset="1" style="stop-color:#FFCF45"/>
		</linearGradient>
		<path class="st16" d="M424.3,893.2c0,0,20.5,27.4,82.1,23.3c0,0,74.6-4.8,93-22.6C599.4,893.9,477.7,911.7,424.3,893.2z"/>
		<path class="st4" d="M508.4,841.2c0,0-36.3,36.9-21.2,98.5s21.2,59.5,21.2,75.2c0,15.7,13.7-44.5,10.3-79.3
			C515.3,900.7,501.6,863.8,508.4,841.2z"/>
	</g>
</g>
</svg>
